<svg version="1.1" id="Layer_1" xmlns="http://www.w3.org/2000/svg" xmlns:xlink="http://www.w3.org/1999/xlink" x="0px" y="0px"
	 viewBox="0 0 640 480" enable-background="new 0 0 640 480" xml:space="preserve">
<circle fill="#2F4F4F" stroke="#636363" stroke-width="9" stroke-miterlimit="10" cx="-87.532" cy="67.206" r="62.085"/>
<g>

		<circle fill="none" stroke="#636363" stroke-width="34" stroke-miterlimit="10" stroke-dasharray="66.8451,66.8451" cx="-521.532" cy="596.206" r="191.489"/>
</g>
<circle fill="#2F4F4F" stroke="#636363" stroke-width="9" stroke-miterlimit="10" cx="-521.532" cy="596.206" r="62.085"/>
<circle fill="#2F4F4F" stroke="#636363" stroke-width="9" stroke-miterlimit="10" cx="1183.468" cy="207.206" r="76.085"/>
<path fill="#2F4F4F" stroke="#636363" stroke-width="9" stroke-miterlimit="10" d="M1140.5,338.338
	c0,16.106-10.122,29.162-22.643,29.162h-90.686c-12.521,0-22.671-13.056-22.671-29.162V221.691c0-16.106,10.15-29.191,22.671-29.191
	h90.686c12.521,0,22.643,13.085,22.643,29.191V338.338z"/>
<path fill="#2F4F4F" stroke="#636363" stroke-width="9" stroke-miterlimit="10" d="M881.5,261.389
	c0,33.751-21.023,61.111-47.201,61.111h-47.4c-26.178,0-47.4-27.36-47.4-61.111v-61.111c0-33.751,21.221-60.778,47.4-60.778h47.4
	c26.178,0,47.201,27.027,47.201,60.778V261.389z"/>
<path fill="#2F4F4F" stroke="#636363" stroke-width="9" stroke-miterlimit="10" d="M850.5,249.803
	c0,20.883-11.977,37.697-26.655,37.697h-26.578c-14.679,0-26.767-16.813-26.767-37.697v-37.813
	c0-20.883,12.088-37.491,26.767-37.491h26.578c14.679,0,26.655,16.607,26.655,37.491V249.803z"/>
<path fill="#2F4F4F" stroke="#636363" stroke-width="9" stroke-miterlimit="10" d="M1026.5,523.424c0,5.001-4.477,9.076-10,9.076
	h-160c-5.523,0-10-4.075-10-9.076v-144.87c0-5.001,4.477-9.054,10-9.054h160c5.523,0,10,4.054,10,9.054V523.424z"/>
<path fill="#2F4F4F" stroke="#636363" stroke-width="9" stroke-miterlimit="10" d="M960.335,253.5h-47.4
	c-26.178,0-47.435,27.474-47.435,61.225v61.111c0,33.751,21.257,60.664,47.435,60.664h47.4c26.178,0,47.165-26.914,47.165-60.664
	v-61.111C1007.5,280.974,986.513,253.5,960.335,253.5z M976.5,364.25c0,20.883-11.941,37.25-26.62,37.25h-26.578
	c-14.679,0-26.802-16.367-26.802-37.25v-37.813c0-20.883,12.123-37.937,26.802-37.937h26.578c14.679,0,26.62,17.054,26.62,37.937
	V364.25z"/>
<path fill="#2F4F4F" d="M360.401,221H351v-55.566C351,131.683,330.413,105,304.235,105h-47.4C230.658,105,209,131.683,209,165.434
	V221h-8.599c-5.523,0-10.401,3.263-10.401,8.264v114.87c0,5.001,4.878,9.866,10.401,9.866h160c5.523,0,9.599-4.866,9.599-9.866
	v-114.87C370,224.263,365.924,221,360.401,221z M292,295.387V324h-25v-28.444c-7-4.283-11.574-11.807-11.574-20.381
	c0-13.332,10.445-24.14,23.777-24.14c13.332,0,24.008,10.808,24.008,24.14C303.211,283.636,299,291.076,292,295.387z M320.138,221
	h-79.471c-0.171-2-0.667-4.254-0.667-6.041v-37.813C240,156.263,252.524,140,267.203,140h26.578C308.46,140,320,156.263,320,177.147
	v37.813C320,216.746,320.307,219,320.138,221z"/>
<path fill="#2F4F4F" d="M-48.599,286H-58v-55.566C-58,196.683-78.587,170-104.765,170h-47.4C-178.342,170-200,196.683-200,230.434
	V286h-8.599c-5.523,0-10.401,3.263-10.401,8.264v114.87c0,5.001,4.878,9.866,10.401,9.866h160c5.523,0,9.599-4.866,9.599-9.866
	v-114.87C-39,289.263-43.076,286-48.599,286z M-169,279.959v-37.813c0-20.883,12.524-37.147,27.203-37.147h26.578
	C-100.54,205-89,221.263-89,242.147v37.813c0,1.787,0.307,4.041,0.138,6.041h-79.471C-168.504,284-169,281.746-169,279.959z"/>
<path fill="#FFFFFF" d="M-105.789,340.174c0-13.332-10.676-24.14-24.008-24.14c-13.332,0-23.777,10.808-23.777,24.14
	c0,8.574,4.574,16.099,11.574,20.381V389h25v-28.613C-110,356.077-105.789,348.636-105.789,340.174z"/>
</svg>
