
<svg version="1.1" id="Layer_1" xmlns="http://www.w3.org/2000/svg" xmlns:xlink="http://www.w3.org/1999/xlink" x="0px" y="0px"
	 width="640px" height="480px" viewBox="0 0 640 480" enable-background="new 0 0 640 480" xml:space="preserve">
<path fill="#FFFFFF" d="M298.613,430.621c-24.033-4.169-46.947-12.465-68.107-24.658l16.976-29.459
	c17.693,10.196,36.851,17.133,56.942,20.617L298.613,430.621z M370.963,430.51l-5.914-33.482
	c20.075-3.546,39.208-10.541,56.865-20.79l17.068,29.406C417.864,417.9,394.979,426.267,370.963,430.51z M175,359.516
	c-15.75-18.683-27.981-39.74-36.351-62.589l31.925-11.695c7.001,19.11,17.236,36.73,30.421,52.37L175,359.516z M494.342,359.035
	l-26.062-21.836c13.144-15.687,23.328-33.345,30.271-52.483l31.961,11.596C522.211,319.192,510.042,340.296,494.342,359.035z
	 M126,225.681v-0.416c0-24.557,4.202-48.551,12.511-71.377l31.955,11.63C163.518,184.605,160,204.687,160,225.206v0.355L126,225.681
	z M508.957,225.017c-0.021-20.511-3.564-40.583-10.529-59.66l31.938-11.661c8.329,22.812,12.565,46.796,12.592,71.285
	L508.957,225.017z M200.777,113.068L174.74,91.204c15.692-18.688,34.335-34.349,55.409-46.549l17.034,29.425
	C229.537,84.296,213.923,97.414,200.777,113.068z M468.064,112.955c-13.162-15.646-28.789-28.751-46.446-38.953l17.008-29.44
	c21.087,12.183,39.745,27.829,55.456,46.505L468.064,112.955z M304.073,53.352l-5.879-33.488
	c23.724-4.164,48.616-4.178,72.351-0.034l-5.846,33.493C344.826,49.854,323.938,49.865,304.073,53.352z"/>
<circle fill="#B7B7B7" stroke="#636363" stroke-width="9" stroke-miterlimit="10" cx="334.468" cy="225.206" r="62.085"/>
<g>

		<circle fill="none" stroke="#636363" stroke-width="34" stroke-miterlimit="10" stroke-dasharray="66.8451,66.8451" cx="-521.532" cy="596.206" r="191.489"/>
</g>
<circle fill="#B7B7B7" stroke="#636363" stroke-width="9" stroke-miterlimit="10" cx="-521.532" cy="596.206" r="62.085"/>
</svg>
