<svg version="1.1" id="Layer_1" xmlns="http://www.w3.org/2000/svg" xmlns:xlink="http://www.w3.org/1999/xlink" x="0px" y="0px"
     width="640px" height="480px" viewBox="0 0 640 480" enable-background="new 0 0 640 480" xml:space="preserve">
  <path fill="#FFFFFF" d="M451.518,71H451H205.518H205l-1,160.591c0,0,0.615,3.365,2.314,10.235
	c4.612,26.482,24.468,102.073,104.339,150.768c5.327,3.55,10.896,6.813,16.752,10.056c0.289-0.144,0.567-0.372,0.855-0.517
	c0.288,0.145,0.566,0.255,0.855,0.4c5.855-3.243,11.425-6.682,16.752-10.232c79.869-48.695,99.725-124.618,104.337-151.1
	c1.698-6.87,2.314-9.61,2.314-9.61L451.518,71z M407.318,277.817l-48.084-48.083l-4.999,4.999l-12.728-12.728l-13.997,13.997
	l-72.124-72.125l16.996-16.997l-24.749-24.748l-16.996,16.996l-4.95-4.95l38.992-38.991l4.95,4.949l-14.997,14.997l24.748,24.749
	l16.997-16.996l72.125,72.124l-13.997,13.997l12.728,12.728l-4.999,4.999l48.083,48.084L407.318,277.817z"></path>
</svg>