<svg version="1.1" id="Layer_1" xmlns="http://www.w3.org/2000/svg" xmlns:xlink="http://www.w3.org/1999/xlink" x="0px" y="0px"
	 viewBox="0 0 960 560" enable-background="new 0 0 960 560" xml:space="preserve">
<path fill="#ffffff" d="M562.587,236.645c-0.14-17.561,0.319-35.217-1.311-52.65c-2.088-22.325-21.489-41.713-44.554-41.662
	c-2.538,0.006-5.076,0.014-7.614,0.021c16.134-11.572,26.349-30.244,24.841-49.527c2.661-35.097-27.389-63.055-58.791-63.843
	c-34.895-0.876-61.691,29.041-62.553,60.857c-0.581,21.439,10.643,40.729,26.399,52.466c-1.231-0.012-2.463-0.012-3.694-0.024
	c-25.09-0.265-45.428,19.88-46.242,45.319c-1.292,40.355-0.441,80.786-0.273,121.183c0.038,9.439,8.696,17.298,17.467,16.721
	c9.452-0.622,15.54-7.474,15.541-17.279c0.005-33.381-0.138-66.761-0.138-100.142c0-2.037,0-2.75,0-5.083c2.333,0,4.667,0,7,0
	c0,12.833,0,25.717,0,38.963c0,83.263-0.04,166.525-0.02,249.787c0.001,6.105,1.265,11.818,5.494,16.471
	c6.55,7.205,17.089,7.916,25.937,4.847c7.281-2.525,12.865-12.323,12.868-21.761C472.965,438.012,473,384.716,473,331.422
	c0-2.219,0-4.755,0-5.922c1.167,0,2.333,0,4.667,0c0,2.333,0,4.244,0,6.5c0,52.347,0.351,104.694,0.472,157.041
	c0.009,4.017,0.756,8.262,2.104,12.003c3.8,10.551,15.007,15.919,26.703,13.41c9.044-1.94,15.961-11.065,15.962-21.581
	c0.005-94.832,0.259-189.665,0.259-284.496c0-2.207,0-4.209,0-5.376c2.333,0,3.5,0,5.833,0c0,2.333,0,3.058,0,5.101
	c0,33.381,0.406,66.764,0.088,100.141c-0.102,10.696,10.009,19.049,20.034,16.512c8.737-2.212,13.061-6.315,13.32-18.695
	C562.927,282.931,562.771,259.783,562.587,236.645z M502.684,80.36c5.272,0,9.546,4.274,9.546,9.547
	c0,5.272-4.273,9.546-9.546,9.546s-9.546-4.274-9.546-9.546S497.411,80.36,502.684,80.36z M504.668,111.011
	c-32.556,42.269-64.027-1.566-64.027-1.566L504.668,111.011z M448.993,78.368c5.272,0,9.546,4.274,9.546,9.546
	s-4.273,9.546-9.546,9.546c-5.272,0-9.547-4.273-9.547-9.546C439.447,82.643,443.721,78.368,448.993,78.368z"/>
</svg>
